<?xml version="1.0" encoding="UTF-8"?>
<svg version="1.1" xmlns="http://www.w3.org/2000/svg" width="512" height="512">
<path d="M0 0 C1.42561879 -0.0032314 2.85123729 -0.0065967 4.27685547 -0.01008606 C7.24496221 -0.01601544 10.21304012 -0.01793256 13.18115234 -0.01733398 C16.17112314 -0.01725303 19.16093971 -0.02415693 22.15087891 -0.0378418 C60.88167168 -0.21222171 96.76561685 0.63314143 126.1328125 29.578125 C145.62273136 50.42242805 151.71725486 75.37339735 152.43041992 103.109375 C152.50066078 105.69226684 152.59658245 108.27345058 152.69335938 110.85546875 C152.74113916 112.5116746 152.78741849 114.16792457 152.83203125 115.82421875 C152.87865654 116.97114197 152.87865654 116.97114197 152.92622375 118.14123535 C153.01395477 122.7113196 152.47083984 125.51108975 149.6875 129.16796875 C147.87759029 130.97787846 145.09226638 130.31454636 142.65478516 130.32910156 C141.36319489 130.33870911 140.07160461 130.34831665 138.74087524 130.35821533 C137.31943945 130.36306291 135.89800161 130.36734184 134.4765625 130.37109375 C133.02786252 130.37684291 131.57916256 130.38260067 130.13046265 130.3883667 C127.0889246 130.39888616 124.04741306 130.4047225 121.00585938 130.40820312 C117.10606159 130.41368736 113.20661306 130.43770948 109.30692482 130.46617508 C106.31294733 130.48478875 103.31905412 130.49000638 100.32502365 130.491539 C98.88728299 130.49456939 97.44954395 130.50261094 96.01185989 130.51572418 C94.00097793 130.53275487 91.98995261 130.52906394 89.97900391 130.52441406 C88.83396393 130.52805969 87.68892395 130.53170532 86.50918579 130.53546143 C83.6875 130.16796875 83.6875 130.16796875 81.85678101 128.83319092 C79.31671935 125.21578248 79.53778593 121.68287792 79.4765625 117.41015625 C79.44846677 116.04816562 79.41980217 114.68618664 79.390625 113.32421875 C79.34961577 111.1917386 79.31270559 109.05946927 79.28613281 106.92675781 C79.15674984 97.35687929 78.78040945 89.13536877 73.625 80.85546875 C60.96598791 69.27381939 37.72993457 73.0101816 21.88134766 73.03759766 C18.19559618 73.04295698 14.50996653 73.03762588 10.82421875 73.03125 C-13.52113969 71.59644424 -13.52113969 71.59644424 -35.625 79.48046875 C-40.64211056 84.49757931 -41.9222209 90.03889554 -43.46875 96.77734375 C-44.3125 99.16796875 -44.3125 99.16796875 -47.3125 101.16796875 C-54.22640728 101.93618067 -54.22640728 101.93618067 -57.875 99.35546875 C-60.69743985 93.09701516 -58.96279529 86.41698362 -56.8125 80.10546875 C-53.07571292 71.60292424 -45.88002474 63.90292171 -37.3125 60.16796875 C-21.16102205 54.35049113 -2.22744189 56.00683502 14.68017578 56.03759766 C18.18135914 56.04295935 21.68241426 56.03762024 25.18359375 56.03125 C71.77594224 56.01496848 71.77594224 56.01496848 84.87890625 68.20703125 C94.94724224 78.70183451 95.8617992 90.1424412 95.75 104.10546875 C95.729375 107.75609375 95.70875 111.40671875 95.6875 115.16796875 C108.8875 115.16796875 122.0875 115.16796875 135.6875 115.16796875 C135.05210001 89.7519692 134.16694484 66.73937506 117.6875 46.16796875 C117.16800781 45.48605469 116.64851563 44.80414063 116.11328125 44.1015625 C104.05949868 29.18756033 85.17913171 20.48587934 66.41052246 18.36480713 C51.83312486 16.87328082 37.26654662 16.86171402 22.63134766 16.90722656 C18.9305217 16.91862029 15.22998334 16.91183843 11.52916718 16.90035534 C-36.04768142 16.68167224 -36.04768142 16.68167224 -76.3125 40.16796875 C-91.29856736 56.33776971 -98.22119417 74.85696123 -98.90234375 96.76171875 C-98.93915756 97.77512329 -98.97597137 98.78852783 -99.01390076 99.8326416 C-99.48295902 113.71143436 -99.65497422 127.5990337 -99.84472656 141.48388672 C-99.89604006 145.18590749 -99.95113725 148.88787207 -100.00585938 152.58984375 C-100.11165112 159.78250381 -100.21345008 166.97521234 -100.3125 174.16796875 C-99.31395996 174.10738281 -98.31541992 174.04679688 -97.28662109 173.984375 C-93.56309601 173.75893018 -89.839432 173.5358553 -86.11572266 173.31347656 C-84.50761118 173.21711275 -82.89953748 173.12011613 -81.29150391 173.02246094 C-78.9730796 172.88177637 -76.65452656 172.7434081 -74.3359375 172.60546875 C-73.62319672 172.56172119 -72.91045593 172.51797363 -72.17611694 172.47290039 C-68.21536082 172.23975952 -64.27990765 172.12454979 -60.3125 172.16796875 C-60.32249275 171.24501762 -60.32249275 171.24501762 -60.33268738 170.30342102 C-60.39908996 163.89577462 -60.44432115 157.48822608 -60.47729492 151.08032227 C-60.49237543 148.68933135 -60.51284277 146.29836807 -60.53881836 143.9074707 C-60.57523306 140.4694944 -60.59223399 137.03188406 -60.60546875 133.59375 C-60.62095261 132.52586746 -60.63643646 131.45798492 -60.65238953 130.35774231 C-60.65447042 121.16829413 -60.65447042 121.16829413 -57.3125 117.16796875 C-55.73352167 115.58899042 -54.11887428 115.92253366 -51.9375 115.85546875 C-50.75027344 115.79939453 -50.75027344 115.79939453 -49.5390625 115.7421875 C-47.3125 116.16796875 -47.3125 116.16796875 -45.69462585 117.86785889 C-44.04044227 120.6207225 -43.94866971 122.20194207 -43.97192383 125.39550781 C-43.97215042 126.43628479 -43.97237701 127.47706177 -43.97261047 128.54937744 C-43.98809433 129.66616882 -44.00357819 130.78296021 -44.01953125 131.93359375 C-44.02377609 133.0821283 -44.02802094 134.23066284 -44.03239441 135.41400146 C-44.04918667 139.08222905 -44.08684102 142.74990722 -44.125 146.41796875 C-44.14004608 148.90493998 -44.15373461 151.39191983 -44.16601562 153.87890625 C-44.19909204 159.97544787 -44.24929744 166.07166906 -44.3125 172.16796875 C-42.90193581 171.92496284 -42.90193581 171.92496284 -41.46287537 171.67704773 C-36.61485357 170.98968339 -31.79505563 171.02038782 -26.90649414 171.02270508 C-25.88042053 171.01934647 -24.85434692 171.01598785 -23.79718018 171.01252747 C-20.39732648 171.00302372 -16.99752243 171.00107195 -13.59765625 171 C-11.18916302 170.9967776 -8.78066997 170.99341283 -6.37217712 170.98991394 C-1.29555818 170.98391746 3.78104378 170.98207364 8.85766602 170.98266602 C13.96252078 170.98274601 19.06728338 170.97601516 24.17211914 170.9621582 C50.21581236 170.89259058 76.22896318 170.97718884 102.25390625 172.0546875 C103.22531996 172.09363443 104.19673367 172.13258137 105.19758415 172.17270851 C114.67459973 172.56405902 124.11957865 173.10443504 133.55444336 174.09692383 C134.26739594 174.16906695 134.98034853 174.24121008 135.71490574 174.31553936 C146.42829274 175.54016267 156.2501908 179.43346195 164.6875 186.16796875 C165.52023437 186.82667969 166.35296875 187.48539063 167.2109375 188.1640625 C180.38065396 199.25747231 187.39052671 214.74995621 189.03149414 231.72680664 C189.3450194 236.03903787 189.59428366 240.35005897 189.8125 244.66796875 C189.85485779 245.46213196 189.89721558 246.25629517 189.94085693 247.07452393 C191.14004071 270.08602639 190.87086854 293.13405864 190.6875 316.16796875 C191.43987442 316.16305923 192.19224884 316.15814972 192.96742249 316.15309143 C215.80559675 316.0265467 238.61266202 316.44396689 261.44238281 317.0368042 C265.05017026 317.12914951 268.65807526 317.21633824 272.26599026 317.30353451 C275.80867608 317.38971562 279.35128478 317.47878881 282.89387703 317.56872749 C284.55166746 317.61055874 286.20947721 317.65163303 287.86730766 317.69184685 C296.22352839 317.8963829 304.57451012 318.1625142 312.92211914 318.59985352 C313.60823241 318.63182548 314.29434568 318.66379744 315.00125027 318.69673824 C327.90395744 319.43257305 336.87790867 324.80749314 345.5 334.10546875 C359.58119278 351.11346834 358.07575634 376.91890528 358 397.79296875 C357.99850952 398.80622223 357.99701904 399.81947571 357.9954834 400.86343384 C357.86590742 449.80205648 357.86590742 449.80205648 342.91015625 466.10546875 C332.60314343 475.88553818 320.00546872 478.27743836 306.3125 478.48046875 C305.52673584 478.49827393 304.74097168 478.5160791 303.93139648 478.53442383 C300.63491773 478.5298094 298.15050624 478.41223188 295.20703125 476.859375 C292.76133351 474.13704307 292.74921003 471.74715038 292.6875 468.16796875 C293.9375 465.29296875 293.9375 465.29296875 295.6875 463.16796875 C298.70751836 462.16129596 301.27945866 462.02315027 304.43847656 461.9284668 C314.20208762 461.61156279 324.58651591 460.68665779 331.6875 453.16796875 C340.92256369 442.70898096 340.82412854 423.70384094 340.890625 410.40234375 C340.89632507 409.48825745 340.90202515 408.57417114 340.90789795 407.63238525 C340.9172927 405.70285171 340.92385977 403.77330252 340.92773438 401.84375 C340.93733587 398.96714173 340.96836907 396.0912818 341 393.21484375 C341.6894211 366.63853841 341.6894211 366.63853841 331.0546875 343.35546875 C319.90846467 332.95899185 303.99016614 335.04405282 289.71484375 334.6328125 C288.99952044 334.61158136 288.28419712 334.59035023 287.54719734 334.56847572 C281.90677244 334.40198136 276.2660121 334.2505917 270.625 334.10546875 C269.34343521 334.07236351 269.34343521 334.07236351 268.03598022 334.03858948 C198.64711442 332.26789365 129.13784614 332.31304958 59.75 334.10546875 C58.48197037 334.13809059 58.48197037 334.13809059 57.18832397 334.17137146 C51.67860819 334.3146234 46.16930586 334.46929832 40.66015625 334.6328125 C39.98311708 334.65231649 39.30607792 334.67182049 38.60852242 334.69191551 C31.76625037 334.89277281 24.92912744 335.16897931 18.09545898 335.56860352 C16.99499741 335.63193375 15.89453583 335.69526398 14.76072693 335.76051331 C7.31481918 336.74770876 1.66006112 340.41017825 -3.05859375 346.12890625 C-6.71911233 352.08152525 -8.02793356 357.82849322 -8.9375 364.66796875 C-9.06084717 365.58594238 -9.18419434 366.50391602 -9.3112793 367.44970703 C-11.32956607 383.40944826 -11.5366383 399.1284993 -10.5625 415.16796875 C-10.48878174 416.43108887 -10.41506348 417.69420898 -10.33911133 418.99560547 C-9.26239807 438.01735541 -9.26239807 438.01735541 -0.3125 454.16796875 C7.54583624 460.63672114 15.9803484 461.48594805 25.8137207 461.80517578 C26.94634275 461.84716473 28.07896481 461.88915367 29.24590874 461.93241501 C32.41983786 462.04431634 35.59385483 462.1460793 38.76835418 462.24028921 C40.82563308 462.30152093 42.88281033 462.36561673 44.93999672 462.42987442 C72.4306329 463.27138095 99.91683794 463.29349564 127.41796875 463.22265625 C128.47916003 463.22008348 129.54035131 463.2175107 130.63369989 463.21485996 C150.45471993 463.16617562 170.27564212 463.09108996 190.09647781 462.99297631 C201.18381956 462.93812446 212.2710718 462.89452557 223.35853273 462.87295544 C229.58772926 462.85995429 235.81648798 462.82905456 242.04553354 462.78432059 C245.87852145 462.76091151 249.71140322 462.7541301 253.54445648 462.75212479 C255.31786727 462.7478279 257.0912767 462.73663767 258.86459541 462.71806335 C261.28141648 462.69371356 263.69703076 462.69398898 266.11393738 462.70040894 C267.16470995 462.68088553 267.16470995 462.68088553 268.23671025 462.66096771 C272.9686079 462.7099858 275.37411019 463.81032695 278.6875 467.16796875 C279.3515625 469.16796875 279.3515625 469.16796875 279.3125 471.16796875 C279.33183594 472.15796875 279.33183594 472.15796875 279.3515625 473.16796875 C278.26604203 476.437301 276.61199203 477.36554051 273.6875 479.16796875 C270.18552638 479.8356424 266.70574807 479.86015006 263.14770508 479.9074707 C262.05788991 479.93597516 260.96807474 479.96447962 259.84523487 479.99384785 C256.12592731 480.07934856 252.40757224 480.12834736 248.6875 480.16796875 C247.7001188 480.17934348 247.7001188 480.17934348 246.69279051 480.19094801 C236.08587502 480.31111457 225.47927503 480.33354914 214.87176871 480.33522582 C212.28156885 480.33594941 209.69137392 480.3381081 207.10117531 480.34072304 C197.93878481 480.34993745 188.77640864 480.35406514 179.61401367 480.35327148 C172.19830116 480.35274481 164.78264222 480.3596599 157.36694336 480.3737793 C120.29442982 480.44267741 83.23606393 480.40427089 46.17592263 479.34424043 C43.98266833 479.28197779 41.78935352 479.22240546 39.59601402 479.16322899 C35.57241251 479.05306449 31.54957814 478.92553526 27.52661133 478.79418945 C25.7813853 478.74492908 25.7813853 478.74492908 24.00090218 478.69467354 C9.80446828 478.18192716 -2.87011828 475.1635119 -13.5546875 465.171875 C-16.74751406 461.53205272 -21.3125 456.20080316 -21.3125 451.16796875 C-21.99086914 451.17844238 -22.66923828 451.18891602 -23.36816406 451.19970703 C-40.42022327 451.42192951 -57.40235506 451.04191113 -74.4375 450.29296875 C-75.85947693 450.23402435 -75.85947693 450.23402435 -77.31018066 450.17388916 C-101.1410698 449.17057561 -120.66703284 445.97976004 -137.921875 428.01953125 C-149.40754965 414.31929841 -152.778388 398.33565774 -153.546875 380.85546875 C-153.58375175 380.12820587 -153.62062851 379.40094299 -153.65862274 378.65164185 C-154.68316517 358.36071726 -154.61575243 338.03666848 -154.57324219 317.72558594 C-154.56184874 312.26385396 -154.5686442 306.80231681 -154.58010101 301.34059143 C-154.61597649 281.31100735 -154.5564279 261.29831634 -153.484375 241.29296875 C-153.44981453 240.59116486 -153.41525406 239.88936096 -153.3796463 239.16629028 C-152.33025262 218.66667037 -146.47472416 202.20860372 -131.3125 188.16796875 C-126.88723681 184.57321714 -122.9160673 181.44494471 -117.3125 180.16796875 C-117.31757568 179.24894775 -117.32265137 178.32992676 -117.32788086 177.38305664 C-117.3733048 164.96323549 -117.17200395 152.54993408 -116.94018555 140.13256836 C-116.8755634 136.63595363 -116.81558373 133.13927951 -116.75585938 129.64257812 C-116.55554843 118.4193362 -116.2892166 107.20109183 -115.8515625 95.984375 C-115.81603775 95.01680771 -115.780513 94.04924042 -115.74391174 93.05235291 C-114.72707694 68.87864738 -106.33378168 48.29276403 -90.3125 30.16796875 C-89.76078125 29.53246094 -89.2090625 28.89695312 -88.640625 28.2421875 C-65.62515905 3.46068332 -31.82314273 0.02691056 0 0 Z M-65.90625 188.05859375 C-67.38081917 188.11683949 -67.38081917 188.11683949 -68.88517761 188.1762619 C-100.43217893 189.0851132 -100.43217893 189.0851132 -126.0625 205.98046875 C-135.13127838 216.85879456 -136.65936031 228.92539266 -137.421875 242.60546875 C-137.46374687 243.32781708 -137.50561874 244.05016541 -137.54875946 244.79440308 C-138.67600075 264.75898974 -138.61608669 284.74556232 -138.57324219 304.73535156 C-138.56184872 310.09292831 -138.56865402 315.45030655 -138.58008575 320.80787659 C-138.61587541 340.35500174 -138.56117918 359.89308065 -137.546875 379.41796875 C-137.51658455 380.0932663 -137.4862941 380.76856384 -137.45508575 381.46432495 C-136.85694062 394.22125801 -134.53406207 406.08310874 -126.3125 416.16796875 C-125.48492187 417.19857422 -125.48492187 417.19857422 -124.640625 418.25 C-115.62949876 428.32012611 -102.82246726 432.66246156 -89.64257812 433.57861328 C-88.04336023 433.66068982 -86.44369863 433.73445758 -84.84375 433.80078125 C-83.53704094 433.8632605 -83.53704094 433.8632605 -82.20393372 433.92700195 C-79.4071002 434.05756365 -76.60993176 434.17598562 -73.8125 434.29296875 C-72.86128265 434.33532654 -71.91006531 434.37768433 -70.93002319 434.42132568 C-55.71608668 435.09836933 -40.54214654 435.45157483 -25.3125 435.16796875 C-25.38355957 434.11335449 -25.45461914 433.05874023 -25.52783203 431.97216797 C-27.00591152 409.50706029 -27.84247567 387.60041972 -25.3125 365.16796875 C-25.21308105 364.27029785 -25.11366211 363.37262695 -25.01123047 362.44775391 C-23.38662795 348.85943927 -19.37505653 336.88023854 -8.3125 328.16796875 C-5.4209979 326.20257053 -2.49179692 324.61711102 0.6875 323.16796875 C1.33847656 322.85988281 1.98945313 322.55179688 2.66015625 322.234375 C8.62472236 319.83245917 14.79514577 319.59911057 21.15429688 319.36791992 C22.03722916 319.33581421 22.92016144 319.3037085 23.82984924 319.27062988 C24.77287399 319.23675171 25.71589874 319.20287354 26.6875 319.16796875 C27.62411972 319.13280151 28.56073944 319.09763428 29.52574158 319.06140137 C57.89300027 318.01551935 86.27668746 317.6399414 114.65795898 317.17218018 C120.77258077 317.07118018 126.88715815 316.96754359 133.0017395 316.8641299 C146.89694524 316.62918286 160.79220282 316.39744004 174.6875 316.16796875 C174.7068466 309.42829357 174.71978673 302.68862579 174.72869873 295.94892883 C174.73242214 293.66606885 174.73750252 291.3832106 174.74407959 289.10035706 C174.78502587 274.50039893 174.61480738 259.9407658 173.9375 245.35546875 C173.88420674 244.19393736 173.88420674 244.19393736 173.82983685 243.0089407 C173.06240221 226.78892986 169.55444807 212.47335606 157.5625 200.85546875 C141.88711315 187.98209035 121.52226979 188.81861733 102.28125 188.05859375 C101.25828323 188.01672188 100.23531647 187.97485001 99.18135071 187.93170929 C74.64848084 186.94795638 50.11918347 186.86143367 25.56982422 186.90722656 C19.41982658 186.91861978 13.27000215 186.9118243 7.12001038 186.90035248 C-17.23882956 186.86180569 -41.56556393 187.06228564 -65.90625 188.05859375 Z " fill="#000000" transform="translate(154.3125,15.83203125)"/>
<path d="M0 0 C3.1359157 1.77984405 3.84102736 2.52308207 5 6 C5.14715199 7.62567079 5.24721867 9.25586857 5.31640625 10.88671875 C5.35830078 11.82451172 5.40019531 12.76230469 5.44335938 13.72851562 C5.48267578 14.70498047 5.52199219 15.68144531 5.5625 16.6875 C5.60568359 17.67556641 5.64886719 18.66363281 5.69335938 19.68164062 C5.79941654 22.12095546 5.90147714 24.56037113 6 27 C6.50861572 26.6918335 7.01723145 26.38366699 7.54125977 26.06616211 C9.87039698 24.67005499 12.21578037 23.30382857 14.5625 21.9375 C15.36236328 21.45216797 16.16222656 20.96683594 16.98632812 20.46679688 C21.00855363 18.15196505 23.23195151 16.9758095 27.96875 17.125 C31 18 31 18 32.9375 19.0625 C34.72197406 22.31654094 34.81539354 25.46662801 34 29 C31.95250577 31.33186843 30.58847582 32.42026844 28 34 C27.01 34.61359375 26.02 35.2271875 25 35.859375 C16.446 41 16.446 41 14 41 C16.01477689 43.14379633 17.96306457 44.71507726 20.50390625 46.19140625 C21.16197266 46.57876953 21.82003906 46.96613281 22.49804688 47.36523438 C23.17931641 47.76033203 23.86058594 48.15542969 24.5625 48.5625 C31.74493243 52.74493243 31.74493243 52.74493243 34 55 C34.67039106 61.9273743 34.67039106 61.9273743 32.4375 65.5 C28.98874398 67.6223114 27.03820894 67.41664061 23 67 C19.68380059 65.6130756 16.64626892 63.83883079 13.5625 62 C12.32209961 61.28457031 12.32209961 61.28457031 11.05664062 60.5546875 C9.02956888 59.38296973 7.011564 58.19808025 5 57 C5.02094727 57.64026123 5.04189453 58.28052246 5.06347656 58.94018555 C5.14689284 61.85579575 5.19873969 64.77115452 5.25 67.6875 C5.30027344 69.19860352 5.30027344 69.19860352 5.3515625 70.74023438 C5.44993188 78.19171529 5.44993188 78.19171529 3.234375 82.171875 C0.88859776 84.09114728 -0.01811762 84.66150781 -3 84.5625 C-3.66 84.56378906 -4.32 84.56507813 -5 84.56640625 C-7.89409751 83.74678879 -9.09199185 82.29735285 -11 80 C-11.54589844 77.43457031 -11.54589844 77.43457031 -11.609375 74.578125 C-11.64160156 73.55332031 -11.67382812 72.52851563 -11.70703125 71.47265625 C-11.72121094 70.40917969 -11.73539062 69.34570312 -11.75 68.25 C-11.77964844 67.17105469 -11.80929687 66.09210938 -11.83984375 64.98046875 C-11.91046936 62.32023756 -11.96320196 59.66087898 -12 57 C-12.47308594 57.30292969 -12.94617188 57.60585938 -13.43359375 57.91796875 C-15.6110955 59.29747766 -17.80493485 60.64862878 -20 62 C-20.74378906 62.47695313 -21.48757813 62.95390625 -22.25390625 63.4453125 C-27.45643995 66.61207214 -30.90119907 67.74827851 -37 67 C-39.5625 64.9375 -39.5625 64.9375 -41 62 C-41 58.25061475 -40.80889808 55.97970908 -38.390625 53.05078125 C-35.3917632 50.47822823 -32.20344045 48.64518074 -28.75 46.75 C-28.1003125 46.38648438 -27.450625 46.02296875 -26.78125 45.6484375 C-25.19081574 44.75966541 -23.59585552 43.87900064 -22 43 C-22 42.34 -22 41.68 -22 41 C-23.12019531 40.39671875 -24.24039062 39.7934375 -25.39453125 39.171875 C-26.86744616 38.36505537 -28.34008823 37.55773749 -29.8125 36.75 C-30.55048828 36.35425781 -31.28847656 35.95851563 -32.04882812 35.55078125 C-39.152116 31.62950921 -39.152116 31.62950921 -41 28 C-40.88067077 24.59911697 -40.64141645 22.06902741 -38.875 19.125 C-35.82370643 17.29422386 -33.57372444 17.10893359 -30 17 C-26.63215876 18.28187729 -23.63731796 20.0717966 -20.5625 21.9375 C-19.73556641 22.41896484 -18.90863281 22.90042969 -18.05664062 23.39648438 C-16.02728484 24.58125278 -14.00972207 25.78232426 -12 27 C-11.99383667 26.03960815 -11.99383667 26.03960815 -11.98754883 25.05981445 C-11.95453962 22.14312095 -11.88388974 19.22849616 -11.8125 16.3125 C-11.80669922 15.30509766 -11.80089844 14.29769531 -11.79492188 13.25976562 C-11.57247023 5.77056009 -11.57247023 5.77056009 -8.640625 1.82421875 C-5.40937834 -0.40801822 -3.85114048 -0.65551327 0 0 Z " fill="#000000" transform="translate(362,372)"/>
<path d="M0 0 C2.6484375 1.28515625 2.6484375 1.28515625 5 4 C5.77655205 7.90732739 5.79082093 11.77550469 5.8125 15.75 C5.83763672 16.82894531 5.86277344 17.90789062 5.88867188 19.01953125 C5.94753299 21.68005377 5.9838204 24.33893151 6 27 C6.50337891 26.6918335 7.00675781 26.38366699 7.52539062 26.06616211 C9.8375951 24.66765989 12.16799615 23.30270915 14.5 21.9375 C15.29148437 21.45216797 16.08296875 20.96683594 16.8984375 20.46679688 C22.46396183 17.25065371 25.7178061 16.32706218 32 18 C34.73469909 20.81756876 34.96648737 22.53920139 35.25 26.4375 C33.37729895 31.77469801 29.77257249 33.30215116 25 36 C23.14461794 37.12299441 21.29041605 38.24794138 19.4375 39.375 C17.95966781 40.25225199 16.48099536 41.12809876 15 42 C20.23515216 45.60148765 25.45801031 48.89446015 31.15234375 51.7265625 C33.38953215 53.26847248 34.0982382 54.45300258 35 57 C34.82357605 60.35205511 34.56269287 62.97391301 32.9375 65.9375 C29.73645188 67.69291349 26.51345655 67.53922922 23 67 C19.78733075 65.65326972 16.92754905 63.87728448 14 62 C12.83791016 61.28457031 12.83791016 61.28457031 11.65234375 60.5546875 C9.75781339 59.38522431 7.87491762 58.20056033 6 57 C5.9906543 57.67579102 5.98130859 58.35158203 5.97167969 59.04785156 C5.91792699 62.1159711 5.83429008 65.18257387 5.75 68.25 C5.73582031 69.31347656 5.72164063 70.37695312 5.70703125 71.47265625 C5.65869141 73.00986328 5.65869141 73.00986328 5.609375 74.578125 C5.58842773 75.52075195 5.56748047 76.46337891 5.54589844 77.43457031 C4.85020907 80.70393699 3.56074208 81.91827366 1 84 C-1 84.56640625 -1 84.56640625 -3 84.5625 C-3.99 84.59537109 -3.99 84.59537109 -5 84.62890625 C-8.3909362 83.56261577 -9.27424537 82.10024947 -11 79 C-11.48125273 75.21536577 -11.37665954 71.49459358 -11.25 67.6875 C-11.23195313 66.66076172 -11.21390625 65.63402344 -11.1953125 64.57617188 C-11.14831063 62.04982115 -11.08262272 59.52539531 -11 57 C-11.50861572 57.30292969 -12.01723145 57.60585938 -12.54125977 57.91796875 C-14.87269699 59.2945412 -17.21715607 60.6472685 -19.5625 62 C-20.76229492 62.71542969 -20.76229492 62.71542969 -21.98632812 63.4453125 C-26.82591721 66.21079198 -30.26431551 67.76085611 -36 67 C-38.4375 65.5 -38.4375 65.5 -40 63 C-40.60921535 60.19531045 -40.86557371 57.75263191 -40 55 C-36.2239862 51.3969334 -31.66646287 48.88165857 -27.1875 46.25 C-26.49462891 45.83878906 -25.80175781 45.42757812 -25.08789062 45.00390625 C-23.3939331 43.9992142 -21.69724304 42.99913175 -20 42 C-20.49927002 41.71278076 -20.99854004 41.42556152 -21.51293945 41.12963867 C-23.78230754 39.82045887 -26.04741241 38.50407071 -28.3125 37.1875 C-29.09818359 36.73568359 -29.88386719 36.28386719 -30.69335938 35.81835938 C-31.45068359 35.37685547 -32.20800781 34.93535156 -32.98828125 34.48046875 C-34.03302612 33.87561646 -34.03302612 33.87561646 -35.09887695 33.25854492 C-37.04838929 31.96796625 -38.53267173 30.82317986 -40 29 C-40.39309578 25.90437069 -40.62338668 23.95663395 -40 21 C-37.9375 18.4375 -37.9375 18.4375 -35 17 C-28.87263497 17.24266792 -24.68628101 19.50135727 -19.5625 22.5625 C-18.83095703 22.98724609 -18.09941406 23.41199219 -17.34570312 23.84960938 C-15.55786242 24.88959514 -13.77807338 25.94340177 -12 27 C-11.98541748 26.39003174 -11.97083496 25.78006348 -11.95581055 25.15161133 C-11.88105225 22.37128936 -11.78448518 19.59213176 -11.6875 16.8125 C-11.66494141 15.85279297 -11.64238281 14.89308594 -11.61914062 13.90429688 C-11.27671278 4.90778338 -11.27671278 4.90778338 -8 1 C-5.14675563 -0.42662219 -3.16545451 -0.31033868 0 0 Z " fill="#000000" transform="translate(279,372)"/>
<path d="M0 0 C2.30275556 1.8670991 3.67823871 3.35647741 5 6 C5.15175549 7.59262066 5.24900325 9.19064856 5.31640625 10.7890625 C5.35830078 11.73007812 5.40019531 12.67109375 5.44335938 13.640625 C5.48267578 14.62546875 5.52199219 15.6103125 5.5625 16.625 C5.62727539 18.11386719 5.62727539 18.11386719 5.69335938 19.6328125 C5.79961069 22.08839838 5.90164964 24.54408703 6 27 C6.50861572 26.6918335 7.01723145 26.38366699 7.54125977 26.06616211 C9.87039698 24.67005499 12.21578037 23.30382857 14.5625 21.9375 C15.36236328 21.45216797 16.16222656 20.96683594 16.98632812 20.46679688 C21.00855363 18.15196505 23.23195151 16.9758095 27.96875 17.125 C31 18 31 18 32.9375 19.0625 C34.31974998 21.5830735 34.50764347 24.02721721 34.69140625 26.8671875 C32.87698527 32.46421493 25.51055469 35.62493494 20.625 38.3125 C19.98433594 38.67150391 19.34367187 39.03050781 18.68359375 39.40039062 C17.1254837 40.27246714 15.56317778 41.13704021 14 42 C14.5347998 42.31751221 15.06959961 42.63502441 15.62060547 42.9621582 C18.04287097 44.40546202 20.4589414 45.85883196 22.875 47.3125 C23.71675781 47.81201172 24.55851562 48.31152344 25.42578125 48.82617188 C26.23144531 49.31279297 27.03710938 49.79941406 27.8671875 50.30078125 C28.61081543 50.74591064 29.35444336 51.19104004 30.12060547 51.6496582 C32 53 32 53 34 56 C34.42255137 59.87338754 34.56667558 62.11598609 32.4375 65.4375 C28.99196363 67.64617716 27.07794698 67.42478614 23 67 C19.68392104 65.61276706 16.64628201 63.83883859 13.5625 62 C12.32209961 61.28457031 12.32209961 61.28457031 11.05664062 60.5546875 C9.02956888 59.38296973 7.011564 58.19808025 5 57 C5.02094727 57.64026123 5.04189453 58.28052246 5.06347656 58.94018555 C5.14689284 61.85579575 5.19873969 64.77115452 5.25 67.6875 C5.30027344 69.19860352 5.30027344 69.19860352 5.3515625 70.74023438 C5.44993188 78.19171529 5.44993188 78.19171529 3.234375 82.171875 C0.88859776 84.09114728 -0.01811762 84.66150781 -3 84.5625 C-3.66 84.56378906 -4.32 84.56507813 -5 84.56640625 C-7.89409751 83.74678879 -9.09199185 82.29735285 -11 80 C-11.54589844 77.43457031 -11.54589844 77.43457031 -11.609375 74.578125 C-11.64160156 73.55332031 -11.67382812 72.52851563 -11.70703125 71.47265625 C-11.72121094 70.40917969 -11.73539063 69.34570312 -11.75 68.25 C-11.77964844 67.17105469 -11.80929688 66.09210938 -11.83984375 64.98046875 C-11.91046936 62.32023756 -11.96320196 59.66087898 -12 57 C-12.47308594 57.30292969 -12.94617188 57.60585938 -13.43359375 57.91796875 C-15.6110955 59.29747766 -17.80493485 60.64862878 -20 62 C-20.74378906 62.47695313 -21.48757812 62.95390625 -22.25390625 63.4453125 C-27.45643995 66.61207214 -30.90119907 67.74827851 -37 67 C-39.5625 64.9375 -39.5625 64.9375 -41 62 C-41 58.24701634 -40.8077152 55.97786343 -38.38671875 53.046875 C-35.40827714 50.49253227 -32.24634403 48.68582535 -28.8125 46.8125 C-24.65537519 44.74254281 -24.65537519 44.74254281 -21 42 C-21.49927002 41.71801758 -21.99854004 41.43603516 -22.51293945 41.14550781 C-24.78461742 39.85585592 -27.04852038 38.55311519 -29.3125 37.25 C-30.49102539 36.58484375 -30.49102539 36.58484375 -31.69335938 35.90625 C-32.45068359 35.46796875 -33.20800781 35.0296875 -33.98828125 34.578125 C-34.68477783 34.18012695 -35.38127441 33.78212891 -36.09887695 33.37207031 C-38.27538575 31.80124978 -39.57477226 30.26920972 -41 28 C-41.40721219 24.74230247 -41.30419556 22.70345223 -40 19.6875 C-36.95791967 17.12074472 -33.86069983 16.70956129 -30 17 C-26.40738173 18.4103045 -23.25098721 20.37254883 -20 22.4375 C-18.69482422 23.23124023 -18.69482422 23.23124023 -17.36328125 24.04101562 C-15.22980188 25.3422036 -13.11028323 26.66163952 -11 28 C-11.02618408 27.29391602 -11.05236816 26.58783203 -11.0793457 25.86035156 C-11.18336357 22.65712792 -11.24834149 19.4542594 -11.3125 16.25 C-11.35439453 15.13882812 -11.39628906 14.02765625 -11.43945312 12.8828125 C-11.56326724 4.66155548 -11.56326724 4.66155548 -8.671875 1.265625 C-5.42383422 -0.27292063 -3.54975338 -0.60421334 0 0 Z " fill="#000000" transform="translate(197,372)"/>
<path d="M0 0 C1.6965332 1.2043457 1.6965332 1.2043457 3 3 C3.34057617 5.54370117 3.34057617 5.54370117 3.29296875 8.54296875 C3.2784668 10.15268555 3.2784668 10.15268555 3.26367188 11.79492188 C3.23853516 12.91447266 3.21339844 14.03402344 3.1875 15.1875 C3.16719727 16.88422852 3.16719727 16.88422852 3.14648438 18.61523438 C3.11109958 21.41063317 3.06172948 24.20507892 3 27 C3.53367187 26.66154053 4.06734375 26.32308105 4.6171875 25.97436523 C7.06481251 24.43957096 9.53160886 22.9386475 12 21.4375 C12.83917969 20.90447266 13.67835938 20.37144531 14.54296875 19.82226562 C21.67239816 15.53908129 21.67239816 15.53908129 26.5 16.0546875 C30 17 30 17 32 18.6875 C33.34038506 21.78714046 33.54667869 23.65159302 33 27 C29.29731592 31.33277754 25.05947282 34.01053286 20.1875 36.8125 C19.14819336 37.42254883 19.14819336 37.42254883 18.08789062 38.04492188 C16.39590948 39.03677289 14.69850109 40.01935598 13 41 C15.06228254 42.27118733 17.12481891 43.54195965 19.1875 44.8125 C19.76564453 45.16892578 20.34378906 45.52535156 20.93945312 45.89257812 C23.55883202 47.50564197 26.18082225 49.10521019 28.83984375 50.65234375 C31.41450477 52.25859701 32.18810986 53.07719548 33 56 C32.82357605 59.35205511 32.56269287 61.97391301 30.9375 64.9375 C27.73645188 66.69291349 24.51345655 66.53922922 21 66 C17.78733075 64.65326972 14.92754905 62.87728448 12 61 C10.83791016 60.28457031 10.83791016 60.28457031 9.65234375 59.5546875 C7.75781339 58.38522431 5.87491762 57.20056033 4 56 C3.9906543 56.67579102 3.98130859 57.35158203 3.97167969 58.04785156 C3.91792699 61.1159711 3.83429008 64.18257387 3.75 67.25 C3.73582031 68.31347656 3.72164063 69.37695312 3.70703125 70.47265625 C3.65869141 72.00986328 3.65869141 72.00986328 3.609375 73.578125 C3.58842773 74.52075195 3.56748047 75.46337891 3.54589844 76.43457031 C2.85007132 79.70458436 1.56534561 80.92212102 -1 83 C-3.90784881 83.70882303 -5.942539 83.33971789 -9 83 C-11.67431489 81.18836733 -11.95920359 80.12238923 -13 77 C-13.08143855 75.37280518 -13.1075302 73.74248281 -13.09765625 72.11328125 C-13.09443359 71.17548828 -13.09121094 70.23769531 -13.08789062 69.27148438 C-13.07951172 68.29501953 -13.07113281 67.31855469 -13.0625 66.3125 C-13.05798828 65.32443359 -13.05347656 64.33636719 -13.04882812 63.31835938 C-13.03704303 60.87884526 -13.02059011 58.43945311 -13 56 C-13.50861572 56.30292969 -14.01723145 56.60585938 -14.54125977 56.91796875 C-16.87269699 58.2945412 -19.21715607 59.6472685 -21.5625 61 C-22.76229492 61.71542969 -22.76229492 61.71542969 -23.98632812 62.4453125 C-28.82367778 65.20951231 -32.26670694 66.76785175 -38 66 C-40.4375 64.4375 -40.4375 64.4375 -42 62 C-42.5625 58.5625 -42.5625 58.5625 -42 55 C-38.32535142 50.65213336 -34.05278419 47.98562038 -29.1875 45.1875 C-28.14819336 44.57745117 -28.14819336 44.57745117 -27.08789062 43.95507812 C-25.39590948 42.96322711 -23.69850109 41.98064402 -22 41 C-22.49927002 40.71278076 -22.99854004 40.42556152 -23.51293945 40.12963867 C-25.78230754 38.82045887 -28.04741241 37.50407071 -30.3125 36.1875 C-31.09818359 35.73568359 -31.88386719 35.28386719 -32.69335938 34.81835938 C-33.45068359 34.37685547 -34.20800781 33.93535156 -34.98828125 33.48046875 C-36.03302612 32.87561646 -36.03302612 32.87561646 -37.09887695 32.25854492 C-39.0359706 30.97618743 -40.52312325 29.79449677 -42 28 C-42.65088557 23.60652243 -42.47438867 21.69001989 -39.9375 18 C-37 16 -37 16 -33.84375 16.08984375 C-29.18148682 17.1938146 -25.64611013 19.12279514 -21.5625 21.5625 C-20.83095703 21.98724609 -20.09941406 22.41199219 -19.34570312 22.84960938 C-17.55786242 23.88959514 -15.77807338 24.94340177 -14 26 C-13.98018066 25.38479492 -13.96036133 24.76958984 -13.93994141 24.13574219 C-13.84450273 21.34007458 -13.73490045 18.5451349 -13.625 15.75 C-13.5940625 14.78191406 -13.563125 13.81382812 -13.53125 12.81640625 C-13.49257813 11.88183594 -13.45390625 10.94726562 -13.4140625 9.984375 C-13.3826416 9.12553711 -13.3512207 8.26669922 -13.31884766 7.38183594 C-12.87264668 4.04865316 -11.99057782 1.77044942 -9.3125 -0.3125 C-5.92838082 -1.31858949 -3.40333226 -0.80442399 0 0 Z " fill="#000000" transform="translate(446,373)"/>
<path d="M0 0 C0.6011412 0.28001862 1.20228241 0.56003723 1.82164001 0.84854126 C3.08461798 1.43854003 4.34595948 2.03205346 5.60571289 2.62890625 C7.52196571 3.53651526 9.4430269 4.43320689 11.36523438 5.328125 C25.96717085 12.16871669 25.96717085 12.16871669 27.46484375 15.1640625 C28.15594323 22.30542376 28.15594323 22.30542376 25.40234375 25.7265625 C21.54617859 27.61362205 19.64031804 27.02854264 15.46484375 26.1640625 C13.06169211 25.24337344 10.69269709 24.2300791 8.359375 23.14453125 C7.71288498 22.84468826 7.06639496 22.54484528 6.40031433 22.23591614 C5.04444942 21.60413126 3.69072999 20.96772314 2.33911133 20.3269043 C0.27838729 19.35205616 -1.79066409 18.39688042 -3.86132812 17.44335938 C-5.18413554 16.82407261 -6.50642011 16.20366757 -7.828125 15.58203125 C-9.01946045 15.02281982 -10.2107959 14.4636084 -11.43823242 13.88745117 C-14.41509176 12.23087647 -16.41057296 10.81309887 -18.53515625 8.1640625 C-19.00434308 4.41056788 -19.06652006 2.12557797 -17.22265625 -1.2109375 C-12.08249093 -6.16072632 -5.52524213 -2.59034582 0 0 Z " fill="#000000" transform="translate(350.53515625,182.8359375)"/>
<path d="M0 0 C2.3125 1.0625 2.3125 1.0625 4 3 C5.30956318 8.47295043 4.81162091 11.53002203 2.39453125 16.5625 C2.11405441 17.15748291 1.83357758 17.75246582 1.54460144 18.36547852 C0.65009435 20.25190094 -0.26836455 22.12547607 -1.1875 24 C-1.78605375 25.25707633 -2.38307297 26.51488454 -2.97851562 27.7734375 C-10.92186147 44.46093074 -10.92186147 44.46093074 -14 46 C-21.21144674 46.45786963 -21.21144674 46.45786963 -23.9375 44.875 C-25.51131781 42.09767445 -25.82944757 40.22960988 -26 37 C-24.98645443 33.68066668 -23.5088727 30.61999665 -22 27.5 C-21.58790283 26.62158447 -21.17580566 25.74316895 -20.7512207 24.83813477 C-19.51560127 22.21808652 -18.25827956 19.60922117 -17 17 C-16.3257165 15.5617161 -15.65244358 14.12295772 -14.98046875 12.68359375 C-8.43028675 -1.05378584 -8.43028675 -1.05378584 0 0 Z " fill="#000000" transform="translate(343,108)"/>
<path d="M0 0 C2.625 2.0625 2.625 2.0625 4 5 C4.0625 8.5625 4.0625 8.5625 3 12 C-0.64375958 15.49767433 -4.33566892 17.11374925 -9.05859375 18.796875 C-9.72536636 19.0353717 -10.39213898 19.27386841 -11.07911682 19.51959229 C-12.48177639 20.018395 -13.88619353 20.51228013 -15.29223633 21.00146484 C-17.43265002 21.74830772 -19.56495344 22.51552981 -21.69726562 23.28515625 C-23.06727086 23.76946846 -24.43770051 24.25258212 -25.80859375 24.734375 C-27.04407959 25.16975586 -28.27956543 25.60513672 -29.55249023 26.05371094 C-32.93909177 26.98328162 -35.51421416 27.3503553 -39 27 C-42.32274404 24.54405875 -43.77618008 23.0743356 -44.625 19 C-43.7833146 14.9599101 -42.10085886 13.68291016 -39 11 C-35.82128906 9.42260742 -35.82128906 9.42260742 -32.265625 8.10546875 C-31.30943268 7.74984612 -31.30943268 7.74984612 -30.33392334 7.38703918 C-28.99173318 6.8921796 -27.6469545 6.40428986 -26.29980469 5.9230957 C-24.26177085 5.1917241 -22.23666893 4.4307071 -20.2109375 3.66601562 C-13.40989636 1.15646935 -7.34592156 -0.89697569 0 0 Z " fill="#000000" transform="translate(377,145)"/>
</svg>
